<?xml version="1.0" encoding="utf-8" standalone="no"?>
<!DOCTYPE svg PUBLIC "-//W3C//DTD SVG 1.1//EN"
  "http://www.w3.org/Graphics/SVG/1.1/DTD/svg11.dtd">
<svg xmlns:xlink="http://www.w3.org/1999/xlink" width="490.370937pt" height="340.100625pt" viewBox="0 0 490.370937 340.100625" xmlns="http://www.w3.org/2000/svg" version="1.1">
 <metadata>
  <rdf:RDF xmlns:dc="http://purl.org/dc/elements/1.1/" xmlns:cc="http://creativecommons.org/ns#" xmlns:rdf="http://www.w3.org/1999/02/22-rdf-syntax-ns#">
   <cc:Work>
    <dc:type rdf:resource="http://purl.org/dc/dcmitype/StillImage"/>
    <dc:date>2023-08-09T18:53:51.131528</dc:date>
    <dc:format>image/svg+xml</dc:format>
    <dc:creator>
     <cc:Agent>
      <dc:title>Matplotlib v3.7.2, https://matplotlib.org/</dc:title>
     </cc:Agent>
    </dc:creator>
   </cc:Work>
  </rdf:RDF>
 </metadata>
 <defs>
  <style type="text/css">*{stroke-linejoin: round; stroke-linecap: butt}</style>
 </defs>
 <g id="figure_1">
  <g id="patch_1">
   <path d="M 0 340.100625 
L 490.370937 340.100625 
L 490.370937 -0 
L 0 -0 
z
" style="fill: #ffffff"/>
  </g>
  <g id="axes_1">
   <g id="patch_2">
    <path d="M 74.010937 304.6225 
L 486.770937 304.6225 
L 486.770937 16.8945 
L 74.010937 16.8945 
z
" style="fill: #ffffff"/>
   </g>
   <g id="matplotlib.axis_1">
    <g id="xtick_1">
     <g id="line2d_1">
      <defs>
       <path id="m3f524a6a27" d="M 0 0 
L 0 3.5 
" style="stroke: #000000; stroke-width: 0.8"/>
      </defs>
      <g>
       <use xlink:href="#m3f524a6a27" x="92.772756" y="304.6225" style="stroke: #000000; stroke-width: 0.8"/>
      </g>
     </g>
     <g id="text_1">
      <!-- 1.0 -->
      <g transform="translate(84.821193 319.220937) scale(0.1 -0.1)">
       <defs>
        <path id="DejaVuSans-31" d="M 794 531 
L 1825 531 
L 1825 4091 
L 703 3866 
L 703 4441 
L 1819 4666 
L 2450 4666 
L 2450 531 
L 3481 531 
L 3481 0 
L 794 0 
L 794 531 
z
" transform="scale(0.015625)"/>
        <path id="DejaVuSans-2e" d="M 684 794 
L 1344 794 
L 1344 0 
L 684 0 
L 684 794 
z
" transform="scale(0.015625)"/>
        <path id="DejaVuSans-30" d="M 2034 4250 
Q 1547 4250 1301 3770 
Q 1056 3291 1056 2328 
Q 1056 1369 1301 889 
Q 1547 409 2034 409 
Q 2525 409 2770 889 
Q 3016 1369 3016 2328 
Q 3016 3291 2770 3770 
Q 2525 4250 2034 4250 
z
M 2034 4750 
Q 2819 4750 3233 4129 
Q 3647 3509 3647 2328 
Q 3647 1150 3233 529 
Q 2819 -91 2034 -91 
Q 1250 -91 836 529 
Q 422 1150 422 2328 
Q 422 3509 836 4129 
Q 1250 4750 2034 4750 
z
" transform="scale(0.015625)"/>
       </defs>
       <use xlink:href="#DejaVuSans-31"/>
       <use xlink:href="#DejaVuSans-2e" x="63.623047"/>
       <use xlink:href="#DejaVuSans-30" x="95.410156"/>
      </g>
     </g>
    </g>
    <g id="xtick_2">
     <g id="line2d_2">
      <g>
       <use xlink:href="#m3f524a6a27" x="139.677301" y="304.6225" style="stroke: #000000; stroke-width: 0.8"/>
      </g>
     </g>
     <g id="text_2">
      <!-- 1.5 -->
      <g transform="translate(131.725739 319.220937) scale(0.1 -0.1)">
       <defs>
        <path id="DejaVuSans-35" d="M 691 4666 
L 3169 4666 
L 3169 4134 
L 1269 4134 
L 1269 2991 
Q 1406 3038 1543 3061 
Q 1681 3084 1819 3084 
Q 2600 3084 3056 2656 
Q 3513 2228 3513 1497 
Q 3513 744 3044 326 
Q 2575 -91 1722 -91 
Q 1428 -91 1123 -41 
Q 819 9 494 109 
L 494 744 
Q 775 591 1075 516 
Q 1375 441 1709 441 
Q 2250 441 2565 725 
Q 2881 1009 2881 1497 
Q 2881 1984 2565 2268 
Q 2250 2553 1709 2553 
Q 1456 2553 1204 2497 
Q 953 2441 691 2322 
L 691 4666 
z
" transform="scale(0.015625)"/>
       </defs>
       <use xlink:href="#DejaVuSans-31"/>
       <use xlink:href="#DejaVuSans-2e" x="63.623047"/>
       <use xlink:href="#DejaVuSans-35" x="95.410156"/>
      </g>
     </g>
    </g>
    <g id="xtick_3">
     <g id="line2d_3">
      <g>
       <use xlink:href="#m3f524a6a27" x="186.581847" y="304.6225" style="stroke: #000000; stroke-width: 0.8"/>
      </g>
     </g>
     <g id="text_3">
      <!-- 2.0 -->
      <g transform="translate(178.630284 319.220937) scale(0.1 -0.1)">
       <defs>
        <path id="DejaVuSans-32" d="M 1228 531 
L 3431 531 
L 3431 0 
L 469 0 
L 469 531 
Q 828 903 1448 1529 
Q 2069 2156 2228 2338 
Q 2531 2678 2651 2914 
Q 2772 3150 2772 3378 
Q 2772 3750 2511 3984 
Q 2250 4219 1831 4219 
Q 1534 4219 1204 4116 
Q 875 4013 500 3803 
L 500 4441 
Q 881 4594 1212 4672 
Q 1544 4750 1819 4750 
Q 2544 4750 2975 4387 
Q 3406 4025 3406 3419 
Q 3406 3131 3298 2873 
Q 3191 2616 2906 2266 
Q 2828 2175 2409 1742 
Q 1991 1309 1228 531 
z
" transform="scale(0.015625)"/>
       </defs>
       <use xlink:href="#DejaVuSans-32"/>
       <use xlink:href="#DejaVuSans-2e" x="63.623047"/>
       <use xlink:href="#DejaVuSans-30" x="95.410156"/>
      </g>
     </g>
    </g>
    <g id="xtick_4">
     <g id="line2d_4">
      <g>
       <use xlink:href="#m3f524a6a27" x="233.486392" y="304.6225" style="stroke: #000000; stroke-width: 0.8"/>
      </g>
     </g>
     <g id="text_4">
      <!-- 2.5 -->
      <g transform="translate(225.53483 319.220937) scale(0.1 -0.1)">
       <use xlink:href="#DejaVuSans-32"/>
       <use xlink:href="#DejaVuSans-2e" x="63.623047"/>
       <use xlink:href="#DejaVuSans-35" x="95.410156"/>
      </g>
     </g>
    </g>
    <g id="xtick_5">
     <g id="line2d_5">
      <g>
       <use xlink:href="#m3f524a6a27" x="280.390937" y="304.6225" style="stroke: #000000; stroke-width: 0.8"/>
      </g>
     </g>
     <g id="text_5">
      <!-- 3.0 -->
      <g transform="translate(272.439375 319.220937) scale(0.1 -0.1)">
       <defs>
        <path id="DejaVuSans-33" d="M 2597 2516 
Q 3050 2419 3304 2112 
Q 3559 1806 3559 1356 
Q 3559 666 3084 287 
Q 2609 -91 1734 -91 
Q 1441 -91 1130 -33 
Q 819 25 488 141 
L 488 750 
Q 750 597 1062 519 
Q 1375 441 1716 441 
Q 2309 441 2620 675 
Q 2931 909 2931 1356 
Q 2931 1769 2642 2001 
Q 2353 2234 1838 2234 
L 1294 2234 
L 1294 2753 
L 1863 2753 
Q 2328 2753 2575 2939 
Q 2822 3125 2822 3475 
Q 2822 3834 2567 4026 
Q 2313 4219 1838 4219 
Q 1578 4219 1281 4162 
Q 984 4106 628 3988 
L 628 4550 
Q 988 4650 1302 4700 
Q 1616 4750 1894 4750 
Q 2613 4750 3031 4423 
Q 3450 4097 3450 3541 
Q 3450 3153 3228 2886 
Q 3006 2619 2597 2516 
z
" transform="scale(0.015625)"/>
       </defs>
       <use xlink:href="#DejaVuSans-33"/>
       <use xlink:href="#DejaVuSans-2e" x="63.623047"/>
       <use xlink:href="#DejaVuSans-30" x="95.410156"/>
      </g>
     </g>
    </g>
    <g id="xtick_6">
     <g id="line2d_6">
      <g>
       <use xlink:href="#m3f524a6a27" x="327.295483" y="304.6225" style="stroke: #000000; stroke-width: 0.8"/>
      </g>
     </g>
     <g id="text_6">
      <!-- 3.5 -->
      <g transform="translate(319.34392 319.220937) scale(0.1 -0.1)">
       <use xlink:href="#DejaVuSans-33"/>
       <use xlink:href="#DejaVuSans-2e" x="63.623047"/>
       <use xlink:href="#DejaVuSans-35" x="95.410156"/>
      </g>
     </g>
    </g>
    <g id="xtick_7">
     <g id="line2d_7">
      <g>
       <use xlink:href="#m3f524a6a27" x="374.200028" y="304.6225" style="stroke: #000000; stroke-width: 0.8"/>
      </g>
     </g>
     <g id="text_7">
      <!-- 4.0 -->
      <g transform="translate(366.248466 319.220937) scale(0.1 -0.1)">
       <defs>
        <path id="DejaVuSans-34" d="M 2419 4116 
L 825 1625 
L 2419 1625 
L 2419 4116 
z
M 2253 4666 
L 3047 4666 
L 3047 1625 
L 3713 1625 
L 3713 1100 
L 3047 1100 
L 3047 0 
L 2419 0 
L 2419 1100 
L 313 1100 
L 313 1709 
L 2253 4666 
z
" transform="scale(0.015625)"/>
       </defs>
       <use xlink:href="#DejaVuSans-34"/>
       <use xlink:href="#DejaVuSans-2e" x="63.623047"/>
       <use xlink:href="#DejaVuSans-30" x="95.410156"/>
      </g>
     </g>
    </g>
    <g id="xtick_8">
     <g id="line2d_8">
      <g>
       <use xlink:href="#m3f524a6a27" x="421.104574" y="304.6225" style="stroke: #000000; stroke-width: 0.8"/>
      </g>
     </g>
     <g id="text_8">
      <!-- 4.5 -->
      <g transform="translate(413.153011 319.220937) scale(0.1 -0.1)">
       <use xlink:href="#DejaVuSans-34"/>
       <use xlink:href="#DejaVuSans-2e" x="63.623047"/>
       <use xlink:href="#DejaVuSans-35" x="95.410156"/>
      </g>
     </g>
    </g>
    <g id="xtick_9">
     <g id="line2d_9">
      <g>
       <use xlink:href="#m3f524a6a27" x="468.009119" y="304.6225" style="stroke: #000000; stroke-width: 0.8"/>
      </g>
     </g>
     <g id="text_9">
      <!-- 5.0 -->
      <g transform="translate(460.057557 319.220937) scale(0.1 -0.1)">
       <use xlink:href="#DejaVuSans-35"/>
       <use xlink:href="#DejaVuSans-2e" x="63.623047"/>
       <use xlink:href="#DejaVuSans-30" x="95.410156"/>
      </g>
     </g>
    </g>
    <g id="text_10">
     <!-- Current Density $A/m^3$ -->
     <g transform="translate(226.640937 334.400625) scale(0.1 -0.1)">
      <defs>
       <path id="DejaVuSans-43" d="M 4122 4306 
L 4122 3641 
Q 3803 3938 3442 4084 
Q 3081 4231 2675 4231 
Q 1875 4231 1450 3742 
Q 1025 3253 1025 2328 
Q 1025 1406 1450 917 
Q 1875 428 2675 428 
Q 3081 428 3442 575 
Q 3803 722 4122 1019 
L 4122 359 
Q 3791 134 3420 21 
Q 3050 -91 2638 -91 
Q 1578 -91 968 557 
Q 359 1206 359 2328 
Q 359 3453 968 4101 
Q 1578 4750 2638 4750 
Q 3056 4750 3426 4639 
Q 3797 4528 4122 4306 
z
" transform="scale(0.015625)"/>
       <path id="DejaVuSans-75" d="M 544 1381 
L 544 3500 
L 1119 3500 
L 1119 1403 
Q 1119 906 1312 657 
Q 1506 409 1894 409 
Q 2359 409 2629 706 
Q 2900 1003 2900 1516 
L 2900 3500 
L 3475 3500 
L 3475 0 
L 2900 0 
L 2900 538 
Q 2691 219 2414 64 
Q 2138 -91 1772 -91 
Q 1169 -91 856 284 
Q 544 659 544 1381 
z
M 1991 3584 
L 1991 3584 
z
" transform="scale(0.015625)"/>
       <path id="DejaVuSans-72" d="M 2631 2963 
Q 2534 3019 2420 3045 
Q 2306 3072 2169 3072 
Q 1681 3072 1420 2755 
Q 1159 2438 1159 1844 
L 1159 0 
L 581 0 
L 581 3500 
L 1159 3500 
L 1159 2956 
Q 1341 3275 1631 3429 
Q 1922 3584 2338 3584 
Q 2397 3584 2469 3576 
Q 2541 3569 2628 3553 
L 2631 2963 
z
" transform="scale(0.015625)"/>
       <path id="DejaVuSans-65" d="M 3597 1894 
L 3597 1613 
L 953 1613 
Q 991 1019 1311 708 
Q 1631 397 2203 397 
Q 2534 397 2845 478 
Q 3156 559 3463 722 
L 3463 178 
Q 3153 47 2828 -22 
Q 2503 -91 2169 -91 
Q 1331 -91 842 396 
Q 353 884 353 1716 
Q 353 2575 817 3079 
Q 1281 3584 2069 3584 
Q 2775 3584 3186 3129 
Q 3597 2675 3597 1894 
z
M 3022 2063 
Q 3016 2534 2758 2815 
Q 2500 3097 2075 3097 
Q 1594 3097 1305 2825 
Q 1016 2553 972 2059 
L 3022 2063 
z
" transform="scale(0.015625)"/>
       <path id="DejaVuSans-6e" d="M 3513 2113 
L 3513 0 
L 2938 0 
L 2938 2094 
Q 2938 2591 2744 2837 
Q 2550 3084 2163 3084 
Q 1697 3084 1428 2787 
Q 1159 2491 1159 1978 
L 1159 0 
L 581 0 
L 581 3500 
L 1159 3500 
L 1159 2956 
Q 1366 3272 1645 3428 
Q 1925 3584 2291 3584 
Q 2894 3584 3203 3211 
Q 3513 2838 3513 2113 
z
" transform="scale(0.015625)"/>
       <path id="DejaVuSans-74" d="M 1172 4494 
L 1172 3500 
L 2356 3500 
L 2356 3053 
L 1172 3053 
L 1172 1153 
Q 1172 725 1289 603 
Q 1406 481 1766 481 
L 2356 481 
L 2356 0 
L 1766 0 
Q 1100 0 847 248 
Q 594 497 594 1153 
L 594 3053 
L 172 3053 
L 172 3500 
L 594 3500 
L 594 4494 
L 1172 4494 
z
" transform="scale(0.015625)"/>
       <path id="DejaVuSans-20" transform="scale(0.015625)"/>
       <path id="DejaVuSans-44" d="M 1259 4147 
L 1259 519 
L 2022 519 
Q 2988 519 3436 956 
Q 3884 1394 3884 2338 
Q 3884 3275 3436 3711 
Q 2988 4147 2022 4147 
L 1259 4147 
z
M 628 4666 
L 1925 4666 
Q 3281 4666 3915 4102 
Q 4550 3538 4550 2338 
Q 4550 1131 3912 565 
Q 3275 0 1925 0 
L 628 0 
L 628 4666 
z
" transform="scale(0.015625)"/>
       <path id="DejaVuSans-73" d="M 2834 3397 
L 2834 2853 
Q 2591 2978 2328 3040 
Q 2066 3103 1784 3103 
Q 1356 3103 1142 2972 
Q 928 2841 928 2578 
Q 928 2378 1081 2264 
Q 1234 2150 1697 2047 
L 1894 2003 
Q 2506 1872 2764 1633 
Q 3022 1394 3022 966 
Q 3022 478 2636 193 
Q 2250 -91 1575 -91 
Q 1294 -91 989 -36 
Q 684 19 347 128 
L 347 722 
Q 666 556 975 473 
Q 1284 391 1588 391 
Q 1994 391 2212 530 
Q 2431 669 2431 922 
Q 2431 1156 2273 1281 
Q 2116 1406 1581 1522 
L 1381 1569 
Q 847 1681 609 1914 
Q 372 2147 372 2553 
Q 372 3047 722 3315 
Q 1072 3584 1716 3584 
Q 2034 3584 2315 3537 
Q 2597 3491 2834 3397 
z
" transform="scale(0.015625)"/>
       <path id="DejaVuSans-69" d="M 603 3500 
L 1178 3500 
L 1178 0 
L 603 0 
L 603 3500 
z
M 603 4863 
L 1178 4863 
L 1178 4134 
L 603 4134 
L 603 4863 
z
" transform="scale(0.015625)"/>
       <path id="DejaVuSans-79" d="M 2059 -325 
Q 1816 -950 1584 -1140 
Q 1353 -1331 966 -1331 
L 506 -1331 
L 506 -850 
L 844 -850 
Q 1081 -850 1212 -737 
Q 1344 -625 1503 -206 
L 1606 56 
L 191 3500 
L 800 3500 
L 1894 763 
L 2988 3500 
L 3597 3500 
L 2059 -325 
z
" transform="scale(0.015625)"/>
       <path id="DejaVuSans-Oblique-41" d="M 2356 4666 
L 3072 4666 
L 3938 0 
L 3278 0 
L 3084 1197 
L 984 1197 
L 325 0 
L -341 0 
L 2356 4666 
z
M 2584 4044 
L 1275 1722 
L 2988 1722 
L 2584 4044 
z
" transform="scale(0.015625)"/>
       <path id="DejaVuSans-2f" d="M 1625 4666 
L 2156 4666 
L 531 -594 
L 0 -594 
L 1625 4666 
z
" transform="scale(0.015625)"/>
       <path id="DejaVuSans-Oblique-6d" d="M 5747 2113 
L 5338 0 
L 4763 0 
L 5166 2094 
Q 5191 2228 5203 2325 
Q 5216 2422 5216 2491 
Q 5216 2772 5059 2928 
Q 4903 3084 4622 3084 
Q 4203 3084 3875 2770 
Q 3547 2456 3450 1953 
L 3066 0 
L 2491 0 
L 2900 2094 
Q 2925 2209 2937 2307 
Q 2950 2406 2950 2484 
Q 2950 2769 2794 2926 
Q 2638 3084 2363 3084 
Q 1938 3084 1609 2770 
Q 1281 2456 1184 1953 
L 800 0 
L 225 0 
L 909 3500 
L 1484 3500 
L 1375 2956 
Q 1609 3263 1923 3423 
Q 2238 3584 2597 3584 
Q 2978 3584 3223 3384 
Q 3469 3184 3519 2828 
Q 3781 3197 4126 3390 
Q 4472 3584 4856 3584 
Q 5306 3584 5551 3325 
Q 5797 3066 5797 2591 
Q 5797 2488 5784 2364 
Q 5772 2241 5747 2113 
z
" transform="scale(0.015625)"/>
      </defs>
      <use xlink:href="#DejaVuSans-43" transform="translate(0 0.765625)"/>
      <use xlink:href="#DejaVuSans-75" transform="translate(69.824219 0.765625)"/>
      <use xlink:href="#DejaVuSans-72" transform="translate(133.203125 0.765625)"/>
      <use xlink:href="#DejaVuSans-72" transform="translate(174.316406 0.765625)"/>
      <use xlink:href="#DejaVuSans-65" transform="translate(215.429688 0.765625)"/>
      <use xlink:href="#DejaVuSans-6e" transform="translate(276.953125 0.765625)"/>
      <use xlink:href="#DejaVuSans-74" transform="translate(340.332031 0.765625)"/>
      <use xlink:href="#DejaVuSans-20" transform="translate(379.541016 0.765625)"/>
      <use xlink:href="#DejaVuSans-44" transform="translate(411.328125 0.765625)"/>
      <use xlink:href="#DejaVuSans-65" transform="translate(488.330078 0.765625)"/>
      <use xlink:href="#DejaVuSans-6e" transform="translate(549.853516 0.765625)"/>
      <use xlink:href="#DejaVuSans-73" transform="translate(613.232422 0.765625)"/>
      <use xlink:href="#DejaVuSans-69" transform="translate(665.332031 0.765625)"/>
      <use xlink:href="#DejaVuSans-74" transform="translate(693.115234 0.765625)"/>
      <use xlink:href="#DejaVuSans-79" transform="translate(732.324219 0.765625)"/>
      <use xlink:href="#DejaVuSans-20" transform="translate(791.503906 0.765625)"/>
      <use xlink:href="#DejaVuSans-Oblique-41" transform="translate(823.291016 0.765625)"/>
      <use xlink:href="#DejaVuSans-2f" transform="translate(891.699219 0.765625)"/>
      <use xlink:href="#DejaVuSans-Oblique-6d" transform="translate(925.390625 0.765625)"/>
      <use xlink:href="#DejaVuSans-33" transform="translate(1027.45263 39.046875) scale(0.7)"/>
     </g>
    </g>
    <g id="text_11">
     <!-- 1e11 -->
     <g transform="translate(461.530312 331.899062) scale(0.1 -0.1)">
      <use xlink:href="#DejaVuSans-31"/>
      <use xlink:href="#DejaVuSans-65" x="63.623047"/>
      <use xlink:href="#DejaVuSans-31" x="125.146484"/>
      <use xlink:href="#DejaVuSans-31" x="188.769531"/>
     </g>
    </g>
   </g>
   <g id="matplotlib.axis_2">
    <g id="ytick_1">
     <g id="line2d_10">
      <defs>
       <path id="meb7fd020b0" d="M 0 0 
L -3.5 0 
" style="stroke: #000000; stroke-width: 0.8"/>
      </defs>
      <g>
       <use xlink:href="#meb7fd020b0" x="74.010937" y="279.240858" style="stroke: #000000; stroke-width: 0.8"/>
      </g>
     </g>
     <g id="text_12">
      <!-- −0.00025 -->
      <g transform="translate(17.278125 283.040077) scale(0.1 -0.1)">
       <defs>
        <path id="DejaVuSans-2212" d="M 678 2272 
L 4684 2272 
L 4684 1741 
L 678 1741 
L 678 2272 
z
" transform="scale(0.015625)"/>
       </defs>
       <use xlink:href="#DejaVuSans-2212"/>
       <use xlink:href="#DejaVuSans-30" x="83.789062"/>
       <use xlink:href="#DejaVuSans-2e" x="147.412109"/>
       <use xlink:href="#DejaVuSans-30" x="179.199219"/>
       <use xlink:href="#DejaVuSans-30" x="242.822266"/>
       <use xlink:href="#DejaVuSans-30" x="306.445312"/>
       <use xlink:href="#DejaVuSans-32" x="370.068359"/>
       <use xlink:href="#DejaVuSans-35" x="433.691406"/>
      </g>
     </g>
    </g>
    <g id="ytick_2">
     <g id="line2d_11">
      <g>
       <use xlink:href="#meb7fd020b0" x="74.010937" y="221.56393" style="stroke: #000000; stroke-width: 0.8"/>
      </g>
     </g>
     <g id="text_13">
      <!-- −0.00020 -->
      <g transform="translate(17.278125 225.363149) scale(0.1 -0.1)">
       <use xlink:href="#DejaVuSans-2212"/>
       <use xlink:href="#DejaVuSans-30" x="83.789062"/>
       <use xlink:href="#DejaVuSans-2e" x="147.412109"/>
       <use xlink:href="#DejaVuSans-30" x="179.199219"/>
       <use xlink:href="#DejaVuSans-30" x="242.822266"/>
       <use xlink:href="#DejaVuSans-30" x="306.445312"/>
       <use xlink:href="#DejaVuSans-32" x="370.068359"/>
       <use xlink:href="#DejaVuSans-30" x="433.691406"/>
      </g>
     </g>
    </g>
    <g id="ytick_3">
     <g id="line2d_12">
      <g>
       <use xlink:href="#meb7fd020b0" x="74.010937" y="163.887002" style="stroke: #000000; stroke-width: 0.8"/>
      </g>
     </g>
     <g id="text_14">
      <!-- −0.00015 -->
      <g transform="translate(17.278125 167.686221) scale(0.1 -0.1)">
       <use xlink:href="#DejaVuSans-2212"/>
       <use xlink:href="#DejaVuSans-30" x="83.789062"/>
       <use xlink:href="#DejaVuSans-2e" x="147.412109"/>
       <use xlink:href="#DejaVuSans-30" x="179.199219"/>
       <use xlink:href="#DejaVuSans-30" x="242.822266"/>
       <use xlink:href="#DejaVuSans-30" x="306.445312"/>
       <use xlink:href="#DejaVuSans-31" x="370.068359"/>
       <use xlink:href="#DejaVuSans-35" x="433.691406"/>
      </g>
     </g>
    </g>
    <g id="ytick_4">
     <g id="line2d_13">
      <g>
       <use xlink:href="#meb7fd020b0" x="74.010937" y="106.210075" style="stroke: #000000; stroke-width: 0.8"/>
      </g>
     </g>
     <g id="text_15">
      <!-- −0.00010 -->
      <g transform="translate(17.278125 110.009294) scale(0.1 -0.1)">
       <use xlink:href="#DejaVuSans-2212"/>
       <use xlink:href="#DejaVuSans-30" x="83.789062"/>
       <use xlink:href="#DejaVuSans-2e" x="147.412109"/>
       <use xlink:href="#DejaVuSans-30" x="179.199219"/>
       <use xlink:href="#DejaVuSans-30" x="242.822266"/>
       <use xlink:href="#DejaVuSans-30" x="306.445312"/>
       <use xlink:href="#DejaVuSans-31" x="370.068359"/>
       <use xlink:href="#DejaVuSans-30" x="433.691406"/>
      </g>
     </g>
    </g>
    <g id="ytick_5">
     <g id="line2d_14">
      <g>
       <use xlink:href="#meb7fd020b0" x="74.010937" y="48.533147" style="stroke: #000000; stroke-width: 0.8"/>
      </g>
     </g>
     <g id="text_16">
      <!-- −0.00005 -->
      <g transform="translate(17.278125 52.332366) scale(0.1 -0.1)">
       <use xlink:href="#DejaVuSans-2212"/>
       <use xlink:href="#DejaVuSans-30" x="83.789062"/>
       <use xlink:href="#DejaVuSans-2e" x="147.412109"/>
       <use xlink:href="#DejaVuSans-30" x="179.199219"/>
       <use xlink:href="#DejaVuSans-30" x="242.822266"/>
       <use xlink:href="#DejaVuSans-30" x="306.445312"/>
       <use xlink:href="#DejaVuSans-30" x="370.068359"/>
       <use xlink:href="#DejaVuSans-35" x="433.691406"/>
      </g>
     </g>
    </g>
    <g id="text_17">
     <!-- System Energy -->
     <g transform="translate(11.198437 198.499125) rotate(-90) scale(0.1 -0.1)">
      <defs>
       <path id="DejaVuSans-53" d="M 3425 4513 
L 3425 3897 
Q 3066 4069 2747 4153 
Q 2428 4238 2131 4238 
Q 1616 4238 1336 4038 
Q 1056 3838 1056 3469 
Q 1056 3159 1242 3001 
Q 1428 2844 1947 2747 
L 2328 2669 
Q 3034 2534 3370 2195 
Q 3706 1856 3706 1288 
Q 3706 609 3251 259 
Q 2797 -91 1919 -91 
Q 1588 -91 1214 -16 
Q 841 59 441 206 
L 441 856 
Q 825 641 1194 531 
Q 1563 422 1919 422 
Q 2459 422 2753 634 
Q 3047 847 3047 1241 
Q 3047 1584 2836 1778 
Q 2625 1972 2144 2069 
L 1759 2144 
Q 1053 2284 737 2584 
Q 422 2884 422 3419 
Q 422 4038 858 4394 
Q 1294 4750 2059 4750 
Q 2388 4750 2728 4690 
Q 3069 4631 3425 4513 
z
" transform="scale(0.015625)"/>
       <path id="DejaVuSans-6d" d="M 3328 2828 
Q 3544 3216 3844 3400 
Q 4144 3584 4550 3584 
Q 5097 3584 5394 3201 
Q 5691 2819 5691 2113 
L 5691 0 
L 5113 0 
L 5113 2094 
Q 5113 2597 4934 2840 
Q 4756 3084 4391 3084 
Q 3944 3084 3684 2787 
Q 3425 2491 3425 1978 
L 3425 0 
L 2847 0 
L 2847 2094 
Q 2847 2600 2669 2842 
Q 2491 3084 2119 3084 
Q 1678 3084 1418 2786 
Q 1159 2488 1159 1978 
L 1159 0 
L 581 0 
L 581 3500 
L 1159 3500 
L 1159 2956 
Q 1356 3278 1631 3431 
Q 1906 3584 2284 3584 
Q 2666 3584 2933 3390 
Q 3200 3197 3328 2828 
z
" transform="scale(0.015625)"/>
       <path id="DejaVuSans-45" d="M 628 4666 
L 3578 4666 
L 3578 4134 
L 1259 4134 
L 1259 2753 
L 3481 2753 
L 3481 2222 
L 1259 2222 
L 1259 531 
L 3634 531 
L 3634 0 
L 628 0 
L 628 4666 
z
" transform="scale(0.015625)"/>
       <path id="DejaVuSans-67" d="M 2906 1791 
Q 2906 2416 2648 2759 
Q 2391 3103 1925 3103 
Q 1463 3103 1205 2759 
Q 947 2416 947 1791 
Q 947 1169 1205 825 
Q 1463 481 1925 481 
Q 2391 481 2648 825 
Q 2906 1169 2906 1791 
z
M 3481 434 
Q 3481 -459 3084 -895 
Q 2688 -1331 1869 -1331 
Q 1566 -1331 1297 -1286 
Q 1028 -1241 775 -1147 
L 775 -588 
Q 1028 -725 1275 -790 
Q 1522 -856 1778 -856 
Q 2344 -856 2625 -561 
Q 2906 -266 2906 331 
L 2906 616 
Q 2728 306 2450 153 
Q 2172 0 1784 0 
Q 1141 0 747 490 
Q 353 981 353 1791 
Q 353 2603 747 3093 
Q 1141 3584 1784 3584 
Q 2172 3584 2450 3431 
Q 2728 3278 2906 2969 
L 2906 3500 
L 3481 3500 
L 3481 434 
z
" transform="scale(0.015625)"/>
      </defs>
      <use xlink:href="#DejaVuSans-53"/>
      <use xlink:href="#DejaVuSans-79" x="63.476562"/>
      <use xlink:href="#DejaVuSans-73" x="122.65625"/>
      <use xlink:href="#DejaVuSans-74" x="174.755859"/>
      <use xlink:href="#DejaVuSans-65" x="213.964844"/>
      <use xlink:href="#DejaVuSans-6d" x="275.488281"/>
      <use xlink:href="#DejaVuSans-20" x="372.900391"/>
      <use xlink:href="#DejaVuSans-45" x="404.6875"/>
      <use xlink:href="#DejaVuSans-6e" x="467.871094"/>
      <use xlink:href="#DejaVuSans-65" x="531.25"/>
      <use xlink:href="#DejaVuSans-72" x="592.773438"/>
      <use xlink:href="#DejaVuSans-67" x="632.136719"/>
      <use xlink:href="#DejaVuSans-79" x="695.613281"/>
     </g>
    </g>
   </g>
   <g id="line2d_15">
    <path d="M 92.772756 187.235089 
L 95.291121 180.27352 
L 97.809485 171.562864 
L 100.32785 185.926117 
L 102.846215 187.035321 
L 105.36458 170.410513 
L 107.882945 121.174821 
L 110.40131 260.589341 
L 112.919675 254.444289 
L 115.438039 268.192507 
L 117.956404 273.53417 
L 120.474769 255.120743 
L 122.993134 259.704786 
L 128.029864 253.364281 
L 130.548229 253.537885 
L 133.066593 268.279247 
L 135.584958 261.07121 
L 138.103323 223.110735 
L 140.621688 274.689466 
L 143.140053 269.420488 
L 145.658418 245.337703 
L 148.176783 240.230907 
L 150.695147 252.84508 
L 153.213512 255.204306 
L 155.731877 252.900818 
L 158.250242 261.140641 
L 160.768607 281.875028 
L 163.286972 258.135251 
L 165.805337 258.544429 
L 168.323701 260.288705 
L 170.842066 233.153223 
L 173.360431 140.97609 
L 175.878796 262.760218 
L 178.397161 255.494971 
L 180.915526 241.287558 
L 183.433891 251.203175 
L 185.952255 247.023054 
L 188.47062 255.714724 
L 190.988985 239.269576 
L 193.50735 264.872067 
L 196.025715 259.793946 
L 198.54408 251.0103 
L 201.062445 256.633706 
L 203.580809 91.723719 
L 206.099174 273.479167 
L 208.617539 246.757581 
L 211.135904 279.756581 
L 213.654269 250.429533 
L 216.172634 260.30819 
L 221.209363 260.65588 
L 223.727728 253.352767 
L 226.246093 242.282536 
L 228.764458 259.065113 
L 231.282823 273.740982 
L 233.801188 254.760964 
L 236.319553 264.218752 
L 238.837917 256.947278 
L 241.356282 258.720749 
L 243.874647 124.343175 
L 246.393012 261.660447 
L 248.911377 243.486549 
L 251.429742 249.516291 
L 253.948107 72.012698 
L 256.466471 247.502489 
L 258.984836 237.936908 
L 261.503201 248.558767 
L 264.021566 265.18566 
L 266.539931 240.672261 
L 269.058296 223.663786 
L 271.576661 238.77479 
L 274.095025 224.35687 
L 276.61339 247.2322 
L 279.131755 244.706593 
L 281.65012 245.551535 
L 284.168485 281.451882 
L 286.68685 134.135363 
L 289.205214 127.616571 
L 291.723579 258.728854 
L 294.241944 269.459394 
L 296.760309 249.536562 
L 299.278674 247.357844 
L 301.797039 244.718199 
L 304.315404 264.012281 
L 306.833768 258.415305 
L 309.352133 262.511291 
L 311.870498 262.684631 
L 314.388863 261.206718 
L 316.907228 245.433986 
L 319.425593 261.501938 
L 321.943958 236.231404 
L 324.462322 253.610703 
L 326.980687 253.065729 
L 329.499052 257.0877 
L 332.017417 248.000436 
L 334.535782 261.910439 
L 337.054147 271.521501 
L 339.572512 273.068597 
L 344.609241 245.876944 
L 347.127606 279.03702 
L 349.645971 250.354482 
L 352.164336 273.540243 
L 354.682701 239.481231 
L 357.201066 269.558004 
L 359.71943 277.807304 
L 362.237795 256.724929 
L 364.75616 274.946159 
L 367.274525 288.438769 
L 369.79289 246.780273 
L 372.311255 249.444784 
L 374.82962 233.965825 
L 377.347984 258.952059 
L 379.866349 258.137972 
L 384.903079 272.301423 
L 387.421444 249.991413 
L 389.939809 243.216131 
L 392.458174 263.61797 
L 394.976538 266.073118 
L 397.494903 270.680966 
L 400.013268 246.82777 
L 402.531633 248.290367 
L 405.049998 254.332482 
L 407.568363 265.415499 
L 410.086728 246.231087 
L 412.605092 250.570574 
L 415.123457 247.016119 
L 417.641822 251.090728 
L 420.160187 251.395768 
L 422.678552 284.171483 
L 425.196917 256.207273 
L 427.715282 266.588931 
L 430.233646 266.815285 
L 432.752011 258.255735 
L 435.270376 246.17202 
L 437.788741 260.504531 
L 440.307106 242.16115 
L 442.825471 240.122967 
L 445.343836 264.186573 
L 447.8622 249.732687 
L 450.380565 256.034965 
L 452.89893 274.856643 
L 455.417295 247.537435 
L 457.93566 256.261326 
L 460.454025 258.917535 
L 462.97239 271.864749 
L 465.490754 271.901425 
L 468.009119 256.112657 
L 468.009119 256.112657 
" clip-path="url(#p523b05973e)" style="fill: none; stroke: #648fff; stroke-opacity: 0.9; stroke-linecap: square"/>
   </g>
   <g id="line2d_16">
    <path d="M 74.010937 256.112657 
L 486.770937 256.112657 
" clip-path="url(#p523b05973e)" style="fill: none; stroke-dasharray: 3.7,1.6; stroke-dashoffset: 0; stroke: #000000; stroke-opacity: 0.6"/>
   </g>
   <g id="line2d_17">
    <path d="M 92.772756 30.359765 
L 95.291121 200.327103 
L 97.809485 200.449363 
L 100.32785 209.54019 
L 102.846215 227.143776 
L 105.36458 225.331224 
L 107.882945 208.263575 
L 110.40131 209.802173 
L 112.919675 211.837112 
L 115.438039 199.866748 
L 117.956404 224.152097 
L 120.474769 198.521365 
L 122.993134 191.689793 
L 125.511499 185.545618 
L 128.029864 190.844822 
L 130.548229 206.852679 
L 133.066593 202.584145 
L 135.584958 200.934604 
L 138.103323 205.549606 
L 140.621688 200.588062 
L 143.140053 190.404522 
L 145.658418 232.218427 
L 150.695147 195.818488 
L 153.213512 204.047054 
L 155.731877 200.08238 
L 158.250242 219.33954 
L 160.768607 222.392483 
L 163.286972 203.686832 
L 165.805337 205.478889 
L 168.323701 218.490989 
L 170.842066 194.337868 
L 173.360431 233.527185 
L 175.878796 186.200625 
L 178.397161 260.587386 
L 180.915526 263.074599 
L 183.433891 266.610978 
L 185.952255 263.539587 
L 188.47062 252.955118 
L 190.988985 265.295817 
L 193.50735 288.21896 
L 196.025715 268.928524 
L 198.54408 267.658107 
L 201.062445 275.207796 
L 203.580809 252.041177 
L 206.099174 241.185141 
L 208.617539 275.081919 
L 211.135904 258.456057 
L 213.654269 257.322024 
L 216.172634 251.496913 
L 218.690999 262.511375 
L 221.209363 251.63882 
L 223.727728 264.846029 
L 226.246093 254.422626 
L 228.764458 271.071644 
L 231.282823 243.056127 
L 233.801188 272.768224 
L 236.319553 248.372594 
L 238.837917 267.275638 
L 241.356282 260.682698 
L 243.874647 251.14462 
L 246.393012 256.461211 
L 248.911377 249.735226 
L 251.429742 230.340603 
L 253.948107 252.568104 
L 256.466471 282.06655 
L 258.984836 263.255481 
L 261.503201 291.543955 
L 264.021566 69.617605 
L 266.539931 259.293534 
L 269.058296 244.952246 
L 271.576661 262.493609 
L 274.095025 258.399746 
L 276.61339 253.793521 
L 279.131755 262.73777 
L 281.65012 267.919526 
L 284.168485 248.36589 
L 286.68685 251.205952 
L 289.205214 272.857181 
L 291.723579 272.603862 
L 294.241944 248.706268 
L 296.760309 263.421473 
L 299.278674 243.431109 
L 301.797039 262.781054 
L 304.315404 256.477521 
L 306.833768 266.080717 
L 309.352133 233.702245 
L 311.870498 241.783211 
L 314.388863 118.543868 
L 316.907228 122.533801 
L 319.425593 256.291045 
L 321.943958 268.843877 
L 324.462322 235.054175 
L 326.980687 275.554673 
L 332.017417 266.710348 
L 334.535782 252.60674 
L 337.054147 279.09922 
L 339.572512 241.867481 
L 342.090876 251.119805 
L 344.609241 255.088926 
L 347.127606 255.942527 
L 349.645971 250.580092 
L 352.164336 259.030422 
L 354.682701 275.26147 
L 357.201066 265.644137 
L 359.71943 259.156867 
L 362.237795 257.646819 
L 364.75616 258.263836 
L 367.274525 249.192472 
L 369.79289 280.674145 
L 372.311255 275.430075 
L 374.82962 247.787937 
L 377.347984 258.459632 
L 379.866349 29.973045 
L 382.384714 271.289238 
L 384.903079 275.901115 
L 387.421444 248.126633 
L 389.939809 257.384616 
L 392.458174 262.015696 
L 394.976538 258.857775 
L 397.494903 243.824593 
L 400.013268 252.085572 
L 402.531633 273.149306 
L 405.049998 248.662487 
L 407.568363 252.479293 
L 410.086728 240.466518 
L 412.605092 263.215674 
L 415.123457 246.232473 
L 417.641822 258.089981 
L 420.160187 274.273916 
L 422.678552 260.806802 
L 425.196917 255.242248 
L 427.715282 243.83792 
L 430.233646 68.241045 
L 432.752011 248.599297 
L 435.270376 265.733226 
L 437.788741 260.114296 
L 440.307106 249.950553 
L 442.825471 249.872117 
L 445.343836 236.917892 
L 447.8622 258.966631 
L 450.380565 256.112339 
L 452.89893 248.919385 
L 455.417295 239.121594 
L 457.93566 257.021498 
L 460.454025 262.272821 
L 462.97239 287.136814 
L 465.490754 263.043306 
L 468.009119 254.334575 
L 468.009119 254.334575 
" clip-path="url(#p523b05973e)" style="fill: none; stroke: #dc267f; stroke-opacity: 0.9; stroke-linecap: square"/>
   </g>
   <g id="line2d_18">
    <path d="M 92.772756 158.617405 
L 95.291121 186.805708 
L 97.809485 181.731227 
L 100.32785 188.676013 
L 102.846215 183.623392 
L 105.36458 196.162808 
L 107.882945 169.625319 
L 110.40131 191.728623 
L 112.919675 167.415347 
L 115.438039 192.146135 
L 117.956404 163.974298 
L 120.474769 185.572049 
L 122.993134 190.027389 
L 125.511499 187.163819 
L 128.029864 168.439516 
L 130.548229 167.085071 
L 133.066593 179.936287 
L 135.584958 180.767778 
L 138.103323 178.384585 
L 140.621688 174.310032 
L 143.140053 182.172638 
L 145.658418 195.429753 
L 148.176783 178.322076 
L 150.695147 176.378424 
L 153.213512 176.642242 
L 155.731877 170.465117 
L 158.250242 186.576382 
L 160.768607 182.298157 
L 163.286972 167.320852 
L 165.805337 206.5727 
L 168.323701 168.620359 
L 170.842066 170.299761 
L 173.360431 183.035512 
L 175.878796 172.779963 
L 178.397161 173.542906 
L 180.915526 178.708443 
L 183.433891 166.570718 
L 185.952255 188.640718 
L 188.47062 190.412504 
L 190.988985 181.582716 
L 193.50735 74.704768 
L 196.025715 189.176652 
L 198.54408 174.663341 
L 201.062445 191.301606 
L 203.580809 166.227956 
L 206.099174 187.191505 
L 208.617539 170.893607 
L 211.135904 180.660929 
L 213.654269 185.96161 
L 216.172634 198.859953 
L 218.690999 177.16024 
L 221.209363 175.057724 
L 223.727728 181.538761 
L 226.246093 164.427165 
L 228.764458 188.744979 
L 231.282823 176.565768 
L 233.801188 259.82388 
L 236.319553 263.897477 
L 238.837917 243.388326 
L 241.356282 255.690765 
L 243.874647 257.744196 
L 246.393012 245.31304 
L 248.911377 245.20695 
L 251.429742 244.94576 
L 253.948107 248.725962 
L 256.466471 265.080256 
L 258.984836 248.544686 
L 261.503201 237.756805 
L 264.021566 267.45922 
L 266.539931 247.606415 
L 269.058296 270.661651 
L 271.576661 280.514139 
L 274.095025 251.392085 
L 276.61339 243.944847 
L 279.131755 254.774943 
L 281.65012 238.753745 
L 284.168485 257.207466 
L 286.68685 286.346657 
L 289.205214 263.349004 
L 291.723579 231.800615 
L 294.241944 262.497955 
L 296.760309 255.114854 
L 299.278674 249.039883 
L 301.797039 244.24908 
L 304.315404 133.104566 
L 306.833768 250.525869 
L 309.352133 266.085512 
L 311.870498 246.425783 
L 314.388863 266.168852 
L 316.907228 244.515624 
L 319.425593 253.091895 
L 321.943958 259.921201 
L 324.462322 278.25932 
L 326.980687 241.170384 
L 329.499052 262.393834 
L 332.017417 121.550428 
L 334.535782 260.018831 
L 337.054147 256.64929 
L 339.572512 253.9308 
L 342.090876 253.447984 
L 344.609241 268.869936 
L 347.127606 246.090059 
L 349.645971 255.225389 
L 352.164336 270.831233 
L 354.682701 251.44295 
L 357.201066 253.334924 
L 359.71943 249.660245 
L 362.237795 249.636656 
L 364.75616 258.378342 
L 367.274525 226.167642 
L 372.311255 278.869535 
L 374.82962 232.341261 
L 377.347984 251.165929 
L 379.866349 265.968881 
L 382.384714 251.009541 
L 384.903079 259.43551 
L 387.421444 271.245865 
L 389.939809 254.463588 
L 392.458174 253.425439 
L 394.976538 289.602774 
L 397.494903 263.11791 
L 400.013268 240.038492 
L 402.531633 273.526884 
L 405.049998 257.565679 
L 407.568363 257.488087 
L 410.086728 257.676518 
L 412.605092 249.84565 
L 415.123457 267.90676 
L 417.641822 238.543518 
L 420.160187 265.537921 
L 422.678552 264.440321 
L 425.196917 251.884218 
L 427.715282 242.145621 
L 430.233646 270.069074 
L 432.752011 261.065087 
L 435.270376 253.700966 
L 437.788741 252.78223 
L 440.307106 234.730849 
L 442.825471 256.984184 
L 445.343836 268.172048 
L 447.8622 257.49938 
L 450.380565 239.22569 
L 452.89893 255.994022 
L 455.417295 260.929784 
L 457.93566 236.691696 
L 460.454025 258.262377 
L 462.97239 265.963137 
L 465.490754 257.496561 
L 468.009119 252.794654 
L 468.009119 252.794654 
" clip-path="url(#p523b05973e)" style="fill: none; stroke: #ffb000; stroke-opacity: 0.9; stroke-linecap: square"/>
   </g>
   <g id="patch_3">
    <path d="M 74.010937 304.6225 
L 74.010937 16.8945 
" style="fill: none; stroke: #000000; stroke-width: 0.8; stroke-linejoin: miter; stroke-linecap: square"/>
   </g>
   <g id="patch_4">
    <path d="M 486.770937 304.6225 
L 486.770937 16.8945 
" style="fill: none; stroke: #000000; stroke-width: 0.8; stroke-linejoin: miter; stroke-linecap: square"/>
   </g>
   <g id="patch_5">
    <path d="M 74.010937 304.6225 
L 486.770937 304.6225 
" style="fill: none; stroke: #000000; stroke-width: 0.8; stroke-linejoin: miter; stroke-linecap: square"/>
   </g>
   <g id="patch_6">
    <path d="M 74.010937 16.8945 
L 486.770937 16.8945 
" style="fill: none; stroke: #000000; stroke-width: 0.8; stroke-linejoin: miter; stroke-linecap: square"/>
   </g>
   <g id="text_18">
    <!-- Energy Over SA Iterations -->
    <g transform="translate(218.180687 10.8945) scale(0.096 -0.096)">
     <defs>
      <path id="DejaVuSans-4f" d="M 2522 4238 
Q 1834 4238 1429 3725 
Q 1025 3213 1025 2328 
Q 1025 1447 1429 934 
Q 1834 422 2522 422 
Q 3209 422 3611 934 
Q 4013 1447 4013 2328 
Q 4013 3213 3611 3725 
Q 3209 4238 2522 4238 
z
M 2522 4750 
Q 3503 4750 4090 4092 
Q 4678 3434 4678 2328 
Q 4678 1225 4090 567 
Q 3503 -91 2522 -91 
Q 1538 -91 948 565 
Q 359 1222 359 2328 
Q 359 3434 948 4092 
Q 1538 4750 2522 4750 
z
" transform="scale(0.015625)"/>
      <path id="DejaVuSans-76" d="M 191 3500 
L 800 3500 
L 1894 563 
L 2988 3500 
L 3597 3500 
L 2284 0 
L 1503 0 
L 191 3500 
z
" transform="scale(0.015625)"/>
      <path id="DejaVuSans-41" d="M 2188 4044 
L 1331 1722 
L 3047 1722 
L 2188 4044 
z
M 1831 4666 
L 2547 4666 
L 4325 0 
L 3669 0 
L 3244 1197 
L 1141 1197 
L 716 0 
L 50 0 
L 1831 4666 
z
" transform="scale(0.015625)"/>
      <path id="DejaVuSans-49" d="M 628 4666 
L 1259 4666 
L 1259 0 
L 628 0 
L 628 4666 
z
" transform="scale(0.015625)"/>
      <path id="DejaVuSans-61" d="M 2194 1759 
Q 1497 1759 1228 1600 
Q 959 1441 959 1056 
Q 959 750 1161 570 
Q 1363 391 1709 391 
Q 2188 391 2477 730 
Q 2766 1069 2766 1631 
L 2766 1759 
L 2194 1759 
z
M 3341 1997 
L 3341 0 
L 2766 0 
L 2766 531 
Q 2569 213 2275 61 
Q 1981 -91 1556 -91 
Q 1019 -91 701 211 
Q 384 513 384 1019 
Q 384 1609 779 1909 
Q 1175 2209 1959 2209 
L 2766 2209 
L 2766 2266 
Q 2766 2663 2505 2880 
Q 2244 3097 1772 3097 
Q 1472 3097 1187 3025 
Q 903 2953 641 2809 
L 641 3341 
Q 956 3463 1253 3523 
Q 1550 3584 1831 3584 
Q 2591 3584 2966 3190 
Q 3341 2797 3341 1997 
z
" transform="scale(0.015625)"/>
      <path id="DejaVuSans-6f" d="M 1959 3097 
Q 1497 3097 1228 2736 
Q 959 2375 959 1747 
Q 959 1119 1226 758 
Q 1494 397 1959 397 
Q 2419 397 2687 759 
Q 2956 1122 2956 1747 
Q 2956 2369 2687 2733 
Q 2419 3097 1959 3097 
z
M 1959 3584 
Q 2709 3584 3137 3096 
Q 3566 2609 3566 1747 
Q 3566 888 3137 398 
Q 2709 -91 1959 -91 
Q 1206 -91 779 398 
Q 353 888 353 1747 
Q 353 2609 779 3096 
Q 1206 3584 1959 3584 
z
" transform="scale(0.015625)"/>
     </defs>
     <use xlink:href="#DejaVuSans-45"/>
     <use xlink:href="#DejaVuSans-6e" x="63.183594"/>
     <use xlink:href="#DejaVuSans-65" x="126.5625"/>
     <use xlink:href="#DejaVuSans-72" x="188.085938"/>
     <use xlink:href="#DejaVuSans-67" x="227.449219"/>
     <use xlink:href="#DejaVuSans-79" x="290.925781"/>
     <use xlink:href="#DejaVuSans-20" x="350.105469"/>
     <use xlink:href="#DejaVuSans-4f" x="381.892578"/>
     <use xlink:href="#DejaVuSans-76" x="460.603516"/>
     <use xlink:href="#DejaVuSans-65" x="519.783203"/>
     <use xlink:href="#DejaVuSans-72" x="581.306641"/>
     <use xlink:href="#DejaVuSans-20" x="622.419922"/>
     <use xlink:href="#DejaVuSans-53" x="654.207031"/>
     <use xlink:href="#DejaVuSans-41" x="719.558594"/>
     <use xlink:href="#DejaVuSans-20" x="787.966797"/>
     <use xlink:href="#DejaVuSans-49" x="819.753906"/>
     <use xlink:href="#DejaVuSans-74" x="849.246094"/>
     <use xlink:href="#DejaVuSans-65" x="888.455078"/>
     <use xlink:href="#DejaVuSans-72" x="949.978516"/>
     <use xlink:href="#DejaVuSans-61" x="991.091797"/>
     <use xlink:href="#DejaVuSans-74" x="1052.371094"/>
     <use xlink:href="#DejaVuSans-69" x="1091.580078"/>
     <use xlink:href="#DejaVuSans-6f" x="1119.363281"/>
     <use xlink:href="#DejaVuSans-6e" x="1180.544922"/>
     <use xlink:href="#DejaVuSans-73" x="1243.923828"/>
    </g>
   </g>
  </g>
 </g>
 <defs>
  <clipPath id="p523b05973e">
   <rect x="74.010937" y="16.8945" width="412.76" height="287.728"/>
  </clipPath>
 </defs>
</svg>
